<svg width="130" height="146" viewBox="0 0 130 146" fill="none" xmlns="http://www.w3.org/2000/svg">
<g clip-path="url(#clip0_17_1136)">
<path d="M72.6474 34.6951H71.8468V12.7191C71.8468 9.34579 70.5096 6.11064 68.1293 3.72534C65.749 1.34005 62.5206 4.25646e-06 59.1543 0H12.6925C11.0257 -4.21509e-06 9.37522 0.328981 7.83529 0.968171C6.29537 1.60736 4.89615 2.54424 3.71754 3.72531C2.53893 4.90639 1.604 6.30852 0.966141 7.85167C0.328278 9.39482 -2.6837e-05 11.0488 -3.05176e-05 12.7191V133.281C-3.20949e-05 134.951 0.328264 136.605 0.966122 138.148C1.60398 139.691 2.53891 141.094 3.71752 142.275C4.89613 143.456 6.29534 144.393 7.83526 145.032C9.37519 145.671 11.0257 146 12.6925 146H59.1543C62.5205 146 65.7489 144.66 68.1292 142.275C70.5096 139.889 71.8468 136.654 71.8468 133.281V50.3379H72.6474V34.6951Z" fill="#F1F1F1"/>
<path d="M59.6664 3.3091H53.6016C53.8805 3.99431 53.987 4.73775 53.9117 5.47391C53.8363 6.21006 53.5814 6.91636 53.1695 7.53056C52.7576 8.14477 52.2013 8.64803 51.5496 8.99603C50.8978 9.34403 50.1707 9.52607 49.4322 9.52613H22.8149C22.0764 9.52607 21.3492 9.34403 20.6975 8.99603C20.0458 8.64804 19.4895 8.14476 19.0775 7.53056C18.6656 6.91635 18.4108 6.21005 18.3354 5.47389C18.2601 4.73773 18.3665 3.9943 18.6454 3.30908H12.9809C10.467 3.30908 8.05608 4.30981 6.27849 6.09111C4.5009 7.87242 3.50226 10.2884 3.50226 12.8075V133.193C3.50226 135.712 4.50089 138.128 6.27848 139.909C8.05607 141.69 10.467 142.691 12.9809 142.691H59.6664C60.9112 142.691 62.1438 142.445 63.2938 141.968C64.4438 141.491 65.4887 140.791 66.3689 139.909C67.249 139.027 67.9472 137.98 68.4236 136.827C68.8999 135.675 69.1451 134.44 69.1451 133.193V12.8076C69.1451 11.5602 68.8999 10.3251 68.4236 9.17265C67.9472 8.02024 67.249 6.97314 66.3689 6.09113C65.4887 5.20911 64.4438 4.50946 63.2938 4.03212C62.1437 3.55478 60.9112 3.3091 59.6664 3.3091Z" fill="white"/>
<path d="M65.2928 97.8617H9.3154C9.04058 97.8614 8.7771 97.7518 8.58277 97.5571C8.38844 97.3624 8.27913 97.0983 8.27881 96.8229V82.9084C8.27913 82.633 8.38844 82.369 8.58277 82.1742C8.7771 81.9795 9.04058 81.8699 9.3154 81.8696H65.2928C65.5676 81.8699 65.8311 81.9795 66.0254 82.1742C66.2197 82.369 66.329 82.633 66.3294 82.9084V96.8231C66.329 97.0985 66.2197 97.3625 66.0253 97.5572C65.831 97.7519 65.5676 97.8614 65.2928 97.8617ZM9.3154 82.2851C9.15049 82.2852 8.99237 82.351 8.87576 82.4678C8.75915 82.5847 8.69357 82.7431 8.69341 82.9084V96.8231C8.69357 96.9884 8.75915 97.1468 8.87576 97.2637C8.99237 97.3806 9.15049 97.4463 9.3154 97.4464H65.2928C65.4577 97.4463 65.6158 97.3806 65.7324 97.2637C65.849 97.1468 65.9146 96.9884 65.9148 96.8231V82.9084C65.9146 82.7431 65.849 82.5847 65.7324 82.4678C65.6158 82.351 65.4577 82.2852 65.2928 82.2851H9.3154Z" fill="#F1F1F1"/>
<path d="M16.5715 94.2284C18.9761 94.2284 20.9253 92.2751 20.9253 89.8656C20.9253 87.456 18.9761 85.5027 16.5715 85.5027C14.167 85.5027 12.2178 87.456 12.2178 89.8656C12.2178 92.2751 14.167 94.2284 16.5715 94.2284Z" fill="#F1F1F1"/>
<path d="M26.6268 86.9571C26.4364 86.9603 26.2549 87.0383 26.1214 87.1743C25.9879 87.3103 25.9131 87.4935 25.9131 87.6842C25.9131 87.875 25.9879 88.0582 26.1214 88.1942C26.2549 88.3302 26.4364 88.4082 26.6268 88.4113H60.8351C61.0275 88.4151 61.2136 88.342 61.3522 88.2083C61.4909 88.0746 61.5709 87.8911 61.5747 87.6983C61.5784 87.5055 61.5055 87.3191 61.372 87.1801C61.2386 87.0411 61.0555 86.9609 60.8631 86.9572L60.8589 86.9571C60.851 86.957 60.8431 86.957 60.8351 86.9571H26.6268Z" fill="#F1F1F1"/>
<path d="M26.6268 91.3199C26.4364 91.3231 26.2549 91.4011 26.1214 91.5371C25.9879 91.6731 25.9131 91.8563 25.9131 92.047C25.9131 92.2378 25.9879 92.4209 26.1214 92.557C26.2549 92.693 26.4364 92.771 26.6268 92.7742H60.8351C61.0272 92.7768 61.2126 92.703 61.3505 92.569C61.4884 92.4349 61.5676 92.2515 61.5708 92.0589C61.5739 91.8664 61.5007 91.6805 61.3673 91.542C61.2339 91.4034 61.051 91.3236 60.8589 91.3199C60.851 91.3198 60.843 91.3198 60.8351 91.3199H26.6268Z" fill="#F1F1F1"/>
<path d="M65.2928 121.131H9.3154C9.04058 121.13 8.7771 121.021 8.58277 120.826C8.38844 120.631 8.27913 120.367 8.27881 120.092V106.177C8.27913 105.902 8.38844 105.638 8.58277 105.443C8.7771 105.248 9.04058 105.139 9.3154 105.138H65.2928C65.5676 105.139 65.8311 105.248 66.0254 105.443C66.2197 105.638 66.329 105.902 66.3294 106.177V120.092C66.329 120.367 66.2197 120.631 66.0253 120.826C65.831 121.021 65.5676 121.13 65.2928 121.131ZM9.3154 105.554C9.15049 105.554 8.99237 105.62 8.87576 105.737C8.75915 105.853 8.69357 106.012 8.69341 106.177V120.092C8.69357 120.257 8.75915 120.416 8.87576 120.533C8.99237 120.649 9.15049 120.715 9.3154 120.715H65.2928C65.4577 120.715 65.6158 120.649 65.7324 120.533C65.849 120.416 65.9146 120.257 65.9148 120.092V106.177C65.9146 106.012 65.849 105.853 65.7324 105.737C65.6158 105.62 65.4577 105.554 65.2928 105.554H9.3154Z" fill="#F1F1F1"/>
<path d="M16.5715 117.497C18.9761 117.497 20.9253 115.544 20.9253 113.134C20.9253 110.725 18.9761 108.771 16.5715 108.771C14.167 108.771 12.2178 110.725 12.2178 113.134C12.2178 115.544 14.167 117.497 16.5715 117.497Z" fill="#F1F1F1"/>
<path d="M26.6268 110.226C26.4364 110.229 26.2549 110.307 26.1214 110.443C25.9879 110.579 25.9131 110.762 25.9131 110.953C25.9131 111.144 25.9879 111.327 26.1214 111.463C26.2549 111.599 26.4364 111.677 26.6268 111.68H60.8351C61.0272 111.683 61.2126 111.609 61.3505 111.475C61.4884 111.341 61.5676 111.157 61.5708 110.965C61.5739 110.772 61.5007 110.587 61.3673 110.448C61.2339 110.309 61.051 110.23 60.8589 110.226C60.851 110.226 60.843 110.226 60.8351 110.226H26.6268Z" fill="#F1F1F1"/>
<path d="M26.6268 114.589C26.4364 114.592 26.2549 114.67 26.1214 114.806C25.9879 114.942 25.9131 115.125 25.9131 115.316C25.9131 115.507 25.9879 115.69 26.1214 115.826C26.2549 115.962 26.4364 116.04 26.6268 116.043H60.8351C61.0272 116.046 61.2126 115.972 61.3505 115.838C61.4884 115.704 61.5676 115.52 61.5708 115.328C61.5739 115.135 61.5007 114.949 61.3673 114.811C61.2339 114.672 61.051 114.592 60.8589 114.589C60.851 114.589 60.843 114.589 60.8351 114.589H26.6268Z" fill="#F1F1F1"/>
<path d="M36.1261 68.9866C30.9046 68.9888 25.8962 66.9124 22.2025 63.2141C18.5089 59.5158 16.4326 54.4986 16.4304 49.2662V49.2498C16.4304 49.2084 16.4304 49.1649 16.4328 49.1236C16.4929 38.3149 25.3277 29.5127 36.1261 29.5127C41.3497 29.5121 46.3596 31.5909 50.0537 35.2919C53.7477 38.9929 55.8234 44.0128 55.824 49.2473C55.8246 54.4819 53.7501 59.5023 50.0568 63.2041C46.3636 66.9059 41.3542 68.9858 36.1306 68.9864H36.1261V68.9866ZM36.1261 29.9278C31.0357 29.9392 26.1554 31.9631 22.5456 35.5597C18.9359 39.1563 16.8882 44.0351 16.8476 49.136C16.8454 49.1802 16.8454 49.2163 16.8454 49.2492C16.8449 53.0711 17.9754 56.8073 20.0939 59.9853C22.2124 63.1634 25.2238 65.6405 28.7472 67.1035C32.2706 68.5665 36.1478 68.9497 39.8885 68.2046C43.6292 67.4594 47.0655 65.6194 49.7626 62.9173C52.4598 60.2151 54.2968 56.7722 55.0413 53.0238C55.7859 49.2755 55.4045 45.39 53.9454 41.8589C52.4863 38.3277 50.0151 35.3095 46.8442 33.1857C43.6733 31.062 39.9452 29.9282 36.1313 29.9278H36.1261Z" fill="#F1F1F1"/>
<path d="M63.0832 92.8511C67.5057 92.8511 71.0908 89.2584 71.0908 84.8267C71.0908 80.3949 67.5057 76.8022 63.0832 76.8022C58.6607 76.8022 55.0755 80.3949 55.0755 84.8267C55.0755 89.2584 58.6607 92.8511 63.0832 92.8511Z" fill="white"/>
<path d="M60.302 88.4368C60.2883 88.4368 60.2746 88.4367 60.2608 88.4364H55.9567C55.4105 88.4277 54.8897 88.2043 54.5065 87.8143C54.1232 87.4243 53.9083 86.899 53.9081 86.3516C53.9079 85.8043 54.1224 85.2788 54.5053 84.8884C54.8882 84.4981 55.4089 84.2743 55.955 84.2652H60.2628C60.2839 84.2648 60.3068 84.2648 60.3296 84.2652C60.879 84.2728 61.4032 84.4978 61.7877 84.8911C62.1723 85.2844 62.386 85.8141 62.3824 86.3647C62.3788 86.9153 62.158 87.4421 61.7683 87.8303C61.3786 88.2185 60.8515 88.4365 60.302 88.4368Z" fill="#FF6464"/>
<path d="M130 145.512H65.1314V145.962H130V145.512Z" fill="#545974"/>
<path d="M69.1281 107.473C69.0771 107.394 69.0349 107.309 69.002 107.221L67.9683 104.447C67.848 104.123 67.8609 103.765 68.0041 103.45C68.1473 103.135 68.4091 102.891 68.7321 102.769L91.8027 94.1367C92.126 94.0161 92.4838 94.0289 92.7977 94.1724C93.1116 94.3159 93.3559 94.5783 93.4769 94.902L94.5104 97.676C94.5702 97.8364 94.5979 98.007 94.5919 98.1782C94.5858 98.3493 94.5462 98.5176 94.4753 98.6734C94.4043 98.8291 94.3035 98.9694 94.1785 99.0861C94.0534 99.2029 93.9067 99.2938 93.7466 99.3537L70.6763 107.986C70.3985 108.09 70.0937 108.096 69.8122 108.003C69.5307 107.909 69.2894 107.723 69.1281 107.473Z" fill="#FF6464"/>
<path d="M91.7292 93.4198L82.3476 97.1687C82.052 97.2578 81.8019 97.4575 81.6494 97.7264C81.4968 97.9954 81.4534 98.3128 81.5282 98.613L82.617 102.981C82.66 103.154 82.7406 103.315 82.8531 103.452C82.9655 103.59 83.107 103.701 83.2674 103.777C83.4277 103.853 83.603 103.893 83.7804 103.893C83.9579 103.894 84.1333 103.854 84.2939 103.779L93.7013 99.3414C93.9994 99.2294 94.2409 99.0035 94.3732 98.7134C94.5054 98.4232 94.5175 98.0924 94.4069 97.7933L93.2761 94.127C93.1643 93.8279 92.9386 93.5854 92.6486 93.4528C92.3586 93.3202 92.028 93.3083 91.7292 93.4198Z" fill="#545974"/>
<path d="M108.898 120.635C108.604 120.669 108.306 120.601 108.055 120.443C107.805 120.284 107.615 120.045 107.518 119.764L99.4878 96.4355C99.4321 96.2736 99.4087 96.1023 99.4191 95.9314C99.4294 95.7605 99.4732 95.5933 99.548 95.4393C99.6229 95.2854 99.7272 95.1477 99.8551 95.0342C99.983 94.9206 100.132 94.8335 100.294 94.7776L103.087 93.812C103.413 93.6995 103.771 93.7213 104.081 93.8727C104.391 94.0241 104.628 94.2927 104.741 94.6195L112.772 117.948C112.884 118.275 112.862 118.634 112.711 118.944C112.56 119.255 112.292 119.493 111.966 119.606L109.173 120.572C109.084 120.603 108.992 120.624 108.898 120.635Z" fill="#FF6464"/>
<path d="M105.34 94.2203L108.422 103.859C108.541 104.144 108.547 104.464 108.437 104.753C108.327 105.042 108.11 105.278 107.831 105.411L103.775 107.348C103.615 107.425 103.44 107.465 103.262 107.465C103.085 107.466 102.909 107.427 102.749 107.352C102.588 107.276 102.446 107.166 102.333 107.029C102.22 106.892 102.138 106.731 102.094 106.559L99.5259 96.4628C99.4226 96.1611 99.4428 95.8306 99.5821 95.5438C99.7213 95.257 99.9683 95.0371 100.269 94.9324L103.811 93.4743C104.113 93.3704 104.443 93.3906 104.729 93.5304C105.016 93.6703 105.236 93.9184 105.34 94.2203Z" fill="#545974"/>
<path d="M96.0078 145.644H93.0531C92.7081 145.643 92.3774 145.506 92.1335 145.262C91.8895 145.017 91.7523 144.686 91.7519 144.34V119.662C91.7523 119.316 91.8895 118.985 92.1335 118.74C92.3774 118.496 92.7081 118.358 93.0531 118.358H96.0078C96.3528 118.358 96.6836 118.496 96.9275 118.74C97.1714 118.985 97.3087 119.316 97.3091 119.662V144.34C97.3087 144.686 97.1714 145.017 96.9275 145.262C96.6836 145.506 96.3528 145.643 96.0078 145.644Z" fill="#545974"/>
<path d="M101.852 145.644H98.8971C98.5521 145.643 98.2214 145.506 97.9774 145.262C97.7335 145.017 97.5963 144.686 97.5959 144.34V119.662C97.5963 119.316 97.7335 118.985 97.9774 118.74C98.2214 118.496 98.5521 118.358 98.8971 118.358H101.852C102.197 118.358 102.528 118.496 102.772 118.74C103.016 118.985 103.153 119.316 103.153 119.662V144.34C103.153 144.686 103.016 145.017 102.772 145.262C102.528 145.506 102.197 145.643 101.852 145.644Z" fill="#545974"/>
<path d="M104.287 122.563H90.8616C90.4901 122.563 90.1339 122.415 89.8712 122.152C89.6085 121.888 89.4607 121.531 89.4603 121.159V99.3036C89.4603 97.1471 90.3151 95.079 91.8368 93.5541C93.3585 92.0293 95.4223 91.1726 97.5743 91.1726C99.7263 91.1726 101.79 92.0293 103.312 93.5541C104.833 95.079 105.688 97.1471 105.688 99.3036V121.159C105.688 121.531 105.54 121.888 105.277 122.152C105.015 122.415 104.658 122.563 104.287 122.563Z" fill="#BABABA"/>
<path d="M106.308 127.909H99.5013V89.3611L99.6277 89.3957C101.545 89.923 103.236 91.0658 104.443 92.6488C105.649 94.2319 106.304 96.1678 106.308 98.1598V127.909Z" fill="#545974"/>
<path d="M95.0941 127.909H88.2875V98.1598C88.2909 96.1678 88.946 94.2319 90.1527 92.6489C91.3593 91.0658 93.0507 89.923 94.9676 89.3957L95.0941 89.3611V127.909Z" fill="#545974"/>
<path d="M97.4727 86.6517C103.39 86.6517 108.187 81.8448 108.187 75.9152C108.187 69.9856 103.39 65.1787 97.4727 65.1787C91.5555 65.1787 86.7586 69.9856 86.7586 75.9152C86.7586 81.8448 91.5555 86.6517 97.4727 86.6517Z" fill="#FF6464"/>
<path d="M109.586 73.4434C109.586 73.4434 110.186 56.7927 102.379 62.2092C102.379 62.2092 97.8746 47.0631 86.864 69.7321L83.6609 72.9419C83.6609 72.9419 98.0747 70.9357 111.488 77.1547L109.586 73.4434Z" fill="#545974"/>
<path d="M97.6361 81.2324C96.9743 81.214 96.1506 81.191 95.5161 80.7265C95.3271 80.5825 95.1719 80.3988 95.0612 80.1884C94.9506 79.978 94.8872 79.7458 94.8755 79.5082C94.864 79.3394 94.8916 79.1701 94.9562 79.0138C95.0208 78.8574 95.1207 78.7181 95.2479 78.6068C95.5793 78.3262 96.0633 78.2604 96.5848 78.414L96.0445 74.4568L96.4411 74.4023L97.0764 79.0545L96.7451 78.9022C96.3611 78.7257 95.8339 78.6358 95.5063 78.9132C95.4259 78.9858 95.3632 79.0759 95.3232 79.1767C95.2832 79.2774 95.2669 79.386 95.2756 79.4941C95.2853 79.6709 95.3329 79.8436 95.4151 80.0003C95.4974 80.1571 95.6124 80.2942 95.7523 80.4024C96.2461 80.7639 96.9026 80.8105 97.6472 80.8314L97.6361 81.2324Z" fill="#545974"/>
<path d="M94.0827 74.7981H91.9263V75.1996H94.0827V74.7981Z" fill="#545974"/>
<path d="M100.889 74.7981H98.7328V75.1996H100.889V74.7981Z" fill="#545974"/>
<path d="M73.5847 108.497C73.2957 108.631 72.9653 108.645 72.6661 108.535C72.367 108.426 72.1236 108.201 71.9895 107.912L65.0807 92.9894C64.9467 92.6998 64.933 92.3688 65.0425 92.069C65.152 91.7693 65.3759 91.5254 65.6649 91.3911C65.9538 91.2567 66.2842 91.2429 66.5833 91.3527C66.8824 91.4624 67.1258 91.6867 67.2599 91.9762L74.1687 106.898C74.3028 107.188 74.3166 107.519 74.207 107.819C74.0975 108.119 73.8736 108.363 73.5847 108.497Z" fill="#545974"/>
<path d="M66.4864 92.4402C66.274 92.4402 66.0704 92.3557 65.9202 92.2052C65.77 92.0547 65.6856 91.8506 65.6856 91.6378V81.4162H55.6761C55.4637 81.4162 55.26 81.3316 55.1098 81.1811C54.9597 81.0306 54.8753 80.8265 54.8753 80.6137C54.8753 80.4009 54.9597 80.1968 55.1098 80.0463C55.26 79.8958 55.4637 79.8113 55.6761 79.8113H66.4864C66.6988 79.8113 66.9025 79.8958 67.0526 80.0463C67.2028 80.1968 67.2872 80.4009 67.2872 80.6137V91.6378C67.2872 91.8506 67.2028 92.0547 67.0526 92.2052C66.9025 92.3557 66.6988 92.4402 66.4864 92.4402Z" fill="#FF6464"/>
<path d="M66.6758 93.5745C64.9518 94.376 63.0293 94.6473 61.1515 94.3539C59.2736 94.0606 57.5248 93.2158 56.1261 91.9264C54.7273 90.637 53.7416 88.961 53.2934 87.1102C52.8453 85.2594 52.9548 83.317 53.6083 81.5286C54.2618 79.7402 55.4298 78.1862 56.9646 77.063C58.4994 75.9398 60.3322 75.298 62.231 75.2186C64.1299 75.1392 66.0096 75.6258 67.6325 76.617C69.2554 77.6081 70.5485 79.0593 71.3483 80.7869C72.4179 83.1039 72.5267 85.7515 71.6507 88.1489C70.7748 90.5462 68.9856 92.4974 66.6758 93.5745ZM59.5985 78.2883C58.3055 78.8894 57.2194 79.8613 56.4776 81.081C55.7358 82.3007 55.3716 83.7135 55.431 85.1406C55.4904 86.5677 55.9708 87.9452 56.8114 89.0987C57.6521 90.2522 58.8152 91.13 60.1536 91.6212C61.4921 92.1123 62.9459 92.1947 64.3311 91.8578C65.7163 91.521 66.9707 90.7801 67.9357 89.7289C68.9007 88.6777 69.533 87.3633 69.7525 85.9519C69.9721 84.5406 69.7691 83.0957 69.1692 81.8C68.3631 80.064 66.9027 78.7194 65.1084 78.061C63.3142 77.4027 61.3327 77.4844 59.5985 78.2883Z" fill="#545974"/>
</g>
<defs>
<clipPath id="clip0_17_1136">
<rect width="130" height="146" fill="white"/>
</clipPath>
</defs>
</svg>
